<?xml version="1.0" encoding="UTF-8" standalone="no"?>
<svg
   xmlns:dc="http://purl.org/dc/elements/1.1/"
   xmlns:cc="http://creativecommons.org/ns#"
   xmlns:rdf="http://www.w3.org/1999/02/22-rdf-syntax-ns#"
   xmlns:svg="http://www.w3.org/2000/svg"
   xmlns="http://www.w3.org/2000/svg"
   xmlns:sodipodi="http://sodipodi.sourceforge.net/DTD/sodipodi-0.dtd"
   xmlns:inkscape="http://www.inkscape.org/namespaces/inkscape"
   width="180.34172mm"
   height="180.58395mm"
   viewBox="0 0 180.34172 180.58395"
   version="1.1"
   id="svg8"
   inkscape:version="1.0.2-2 (e86c870879, 2021-01-15)">
  <defs
     id="defs2" />
  <sodipodi:namedview
     id="base"
     pagecolor="#ffffff"
     bordercolor="#666666"
     borderopacity="1.0"
     inkscape:pageopacity="0.0"
     inkscape:pageshadow="2"
     inkscape:zoom="0.98994949"
     inkscape:cx="828.55354"
     inkscape:cy="525.18486"
     inkscape:document-units="mm"
     inkscape:current-layer="layer1"
     inkscape:document-rotation="0"
     showgrid="false"
     fit-margin-top="0"
     fit-margin-left="0"
     fit-margin-right="0"
     fit-margin-bottom="0"
     inkscape:window-width="2560"
     inkscape:window-height="1361"
     inkscape:window-x="-9"
     inkscape:window-y="-9"
     inkscape:window-maximized="1" />
  <metadata
     id="metadata5">
    <rdf:RDF>
      <cc:Work
         rdf:about="">
        <dc:format>image/svg+xml</dc:format>
        <dc:type
           rdf:resource="http://purl.org/dc/dcmitype/StillImage" />
        <dc:title></dc:title>
      </cc:Work>
    </rdf:RDF>
  </metadata>
  <g
     inkscape:label="Layer 1"
     inkscape:groupmode="layer"
     id="layer1"
     transform="translate(-5.607945,-70.75531)">
    <path
       d="m 15.031965,71.121715 c -3.668889,0.70556 -6.8438888,3.21028 -8.4313888,6.59695 -0.776111,1.65805 -0.9525,2.50472 -0.9525,4.83305 0,5.46806 -2.398889,2.75167 37.9236138,43.038895 l 35.63055,35.63056 -35.94805,35.98333 c -29.174725,29.24528 -36.0538918,36.30084 -36.7241698,37.74723 -1.199444,2.50472 -1.234722,7.02027 -0.07055,9.525 1.023055,2.2225 3.280833,4.55083 5.5386108,5.75027 2.54,1.30528 6.596945,1.48167 9.525,0.42334 2.046119,-0.77611 3.316119,-1.97556 38.205839,-36.83 l 36.05388,-36.01862 35.91278,35.84223 c 28.82195,28.78667 36.23028,36.01861 37.64139,36.68889 1.48168,0.70555 2.29306,0.84666 5.11529,0.84666 2.92805,0 3.56305,-0.14111 5.11528,-0.9525 2.18722,-1.12888 4.55083,-3.63361 5.57387,-5.85611 1.1289,-2.39889 1.05834,-6.94972 -0.10583,-9.41916 -0.67028,-1.44639 -7.54944,-8.50195 -36.72417,-37.74723 l -35.94805,-35.98333 35.63055,-35.63056 c 40.3225,-40.287225 37.92362,-37.570835 37.92362,-43.038895 0,-2.29305 -0.17639,-3.175 -0.91723,-4.7625 -2.8575,-6.06778 -10.01889,-8.53722 -16.01611,-5.57389 -0.91722,0.45861 -13.79361,13.05278 -37.28861,36.547785 L 95.7828,144.64061 59.9053,108.76311 C 36.37502,85.268105 23.49863,72.673935 22.58141,72.215325 c -1.19944,-0.59972 -5.115273,-1.5875 -5.785551,-1.44639 -0.105833,0.0353 -0.917222,0.17639 -1.763889,0.35278 z"
       id="path872"
       style="fill:#f5f0ec;fill-opacity:1;stroke:none;stroke-width:0.0352778" />
  </g>
</svg>
